<?xml version="1.0" encoding="UTF-8" standalone="no"?>
<!-- Created with Inkscape (http://www.inkscape.org/) -->

<svg
   xmlns:dc="http://purl.org/dc/elements/1.1/"
   xmlns:cc="http://creativecommons.org/ns#"
   xmlns:rdf="http://www.w3.org/1999/02/22-rdf-syntax-ns#"
   xmlns:svg="http://www.w3.org/2000/svg"
   xmlns="http://www.w3.org/2000/svg"
   xmlns:sodipodi="http://sodipodi.sourceforge.net/DTD/sodipodi-0.dtd"
   xmlns:inkscape="http://www.inkscape.org/namespaces/inkscape"
   id="svg2"
   version="1.1"
   inkscape:version="0.91pre2 r13516"
   width="640.21625"
   height="327.73187"
   viewBox="0 0 640.21624 327.73188"
   sodipodi:docname="bearded_404b.svg">
  <metadata
     id="metadata8">
    <rdf:RDF>
      <cc:Work
         rdf:about="">
        <dc:format>image/svg+xml</dc:format>
        <dc:type
           rdf:resource="http://purl.org/dc/dcmitype/StillImage" />
        <dc:title />
      </cc:Work>
    </rdf:RDF>
  </metadata>
  <defs
     id="defs6" />
  <sodipodi:namedview
     pagecolor="#ffffff"
     bordercolor="#666666"
     borderopacity="1"
     objecttolerance="10"
     gridtolerance="10"
     guidetolerance="10"
     inkscape:pageopacity="0"
     inkscape:pageshadow="2"
     inkscape:window-width="1920"
     inkscape:window-height="1125"
     id="namedview4"
     showgrid="false"
     inkscape:zoom="0.9588368"
     inkscape:cx="3.4126928"
     inkscape:cy="267.29613"
     inkscape:window-x="-9"
     inkscape:window-y="-9"
     inkscape:window-maximized="1"
     inkscape:current-layer="image"
     fit-margin-top="0"
     fit-margin-left="0"
     fit-margin-right="0"
     fit-margin-bottom="0" />
  <g
     id="image"
     transform="translate(48.152411,58.908133)">
    <g
       id="g4351"
       inkscape:label="#image"
       transform="matrix(2,0,0,2,-271.9557,-104.9578)">
      <path
         style="fill:#502d16;fill-rule:evenodd;stroke:#000000;stroke-width:0.1;stroke-linecap:butt;stroke-linejoin:miter;stroke-miterlimit:4;stroke-dasharray:none;stroke-opacity:1"
         d="m 118.3593,67.269344 76.89017,0.184378 0.18178,89.422708 -1.81772,7.74382 -3.18103,5.6235 -4.08992,4.97816 -5.54409,3.9641 -6.45295,3.50315 -7.90716,2.30472 -6.99828,1.01407 -7.54359,-0.27656 -7.27094,-1.47502 -7.18005,-2.3969 -6.45295,-3.87191 -6.81652,-6.361 -3.63548,-5.80787 -1.72684,-5.34693 -0.36354,-4.42501 z"
         id="path4596"
         inkscape:connector-curvature="0" />
      <path
         style="fill:#ffffff;fill-rule:evenodd;stroke:#000000;stroke-width:1px;stroke-linecap:butt;stroke-linejoin:miter;stroke-opacity:1"
         d="m 129.5841,70.55257 7.43088,4.041355 8.34344,1.825129 9.25601,1.173296 11.99369,-0.651831 8.47381,-1.694762 5.73612,-2.216227 2.99843,-1.564396 2.99842,15.513589 0.52147,10.298938 -1.30367,12.384799 -2.08586,7.95234 -5.21465,7.69161 -5.47538,7.17015 -9.90784,1.30366 -0.52147,3.25916 -2.93628,2.3205 -2.94985,0.69137 -3.36467,-0.36873 -2.12021,-1.56711 -1.65929,-2.39675 -14.0118,-10.14012 -5.02801,-7.18154 -3.38952,-9.38637 -1.30366,-8.99528 0,-9.647103 z"
         id="path4647"
         inkscape:connector-curvature="0" />
      <g
         id="beanie"
         style="fill:#cdde87;stroke:#000000;stroke-opacity:1">
        <rect
           ry="3.6873157"
           y="52.154865"
           x="113.20059"
           height="15.30236"
           width="87.389381"
           id="rect4139"
           style="fill:#cdde87;fill-opacity:1;stroke:#000000;stroke-width:2;stroke-linecap:round;stroke-linejoin:round;stroke-miterlimit:4;stroke-dasharray:none;stroke-opacity:1" />
        <path
           inkscape:connector-curvature="0"
           id="path4141"
           d="m 119.46903,52.154867 0,15.117994"
           style="fill:#cdde87;fill-rule:evenodd;stroke:#000000;stroke-width:1px;stroke-linecap:butt;stroke-linejoin:miter;stroke-opacity:1" />
        <path
           inkscape:connector-curvature="0"
           id="path4143"
           d="m 126.38274,51.970501 0,15.117994"
           style="fill:#cdde87;fill-rule:evenodd;stroke:#000000;stroke-width:1px;stroke-linecap:butt;stroke-linejoin:miter;stroke-opacity:1" />
        <path
           inkscape:connector-curvature="0"
           id="path4145"
           d="m 133.01991,52.24705 0,14.657079"
           style="fill:#cdde87;fill-rule:evenodd;stroke:#000000;stroke-width:1px;stroke-linecap:butt;stroke-linejoin:miter;stroke-opacity:1" />
        <path
           inkscape:connector-curvature="0"
           id="path4147"
           d="m 139.5649,52.339233 0,14.564896"
           style="fill:#cdde87;fill-rule:evenodd;stroke:#000000;stroke-width:1px;stroke-linecap:butt;stroke-linejoin:miter;stroke-opacity:1" />
        <path
           inkscape:connector-curvature="0"
           id="path4149"
           d="m 146.47861,52.431416 0,14.472713"
           style="fill:#cdde87;fill-rule:evenodd;stroke:#000000;stroke-width:1px;stroke-linecap:butt;stroke-linejoin:miter;stroke-opacity:1" />
        <path
           inkscape:connector-curvature="0"
           id="path4151"
           d="m 153.30015,52.431416 0,14.472713"
           style="fill:#cdde87;fill-rule:evenodd;stroke:#000000;stroke-width:1px;stroke-linecap:butt;stroke-linejoin:miter;stroke-opacity:1" />
        <path
           inkscape:connector-curvature="0"
           id="path4153"
           d="m 160.12168,52.431416 0,14.564896"
           style="fill:#cdde87;fill-rule:evenodd;stroke:#000000;stroke-width:1px;stroke-linecap:butt;stroke-linejoin:miter;stroke-opacity:1" />
        <path
           inkscape:connector-curvature="0"
           id="path4155"
           d="m 166.75885,52.615781 0,14.288348"
           style="fill:#cdde87;fill-rule:evenodd;stroke:#000000;stroke-width:1px;stroke-linecap:butt;stroke-linejoin:miter;stroke-opacity:1" />
        <path
           inkscape:connector-curvature="0"
           id="path4157"
           d="m 173.39602,52.523598 0,14.841446"
           style="fill:#cdde87;fill-rule:evenodd;stroke:#000000;stroke-width:1px;stroke-linecap:butt;stroke-linejoin:miter;stroke-opacity:1" />
        <path
           inkscape:connector-curvature="0"
           id="path4159"
           d="m 180.40192,52.523598 0,14.472714"
           style="fill:#cdde87;fill-rule:evenodd;stroke:#000000;stroke-width:1px;stroke-linecap:butt;stroke-linejoin:miter;stroke-opacity:1" />
        <path
           inkscape:connector-curvature="0"
           id="path4161"
           d="m 187.13127,52.431416 0,14.749262"
           style="fill:#cdde87;fill-rule:evenodd;stroke:#000000;stroke-width:1px;stroke-linecap:butt;stroke-linejoin:miter;stroke-opacity:1" />
        <path
           inkscape:connector-curvature="0"
           id="path4163"
           d="m 194.13717,52.339233 0,14.657079"
           style="fill:#cdde87;fill-rule:evenodd;stroke:#000000;stroke-width:1px;stroke-linecap:butt;stroke-linejoin:miter;stroke-opacity:1" />
        <path
           transform="scale(1,-1)"
           sodipodi:open="true"
           d="m 194.69028,-51.58757 a 37.702805,27.562685 0 0 1 -37.22235,27.560447 37.702805,27.562685 0 0 1 -38.17102,-26.858026"
           sodipodi:end="3.1161054"
           sodipodi:start="0"
           sodipodi:ry="27.562685"
           sodipodi:rx="37.702805"
           sodipodi:cy="-51.58757"
           sodipodi:cx="156.98747"
           sodipodi:type="arc"
           id="path4165"
           style="fill:#cdde87;fill-opacity:1;stroke:#000000;stroke-width:2;stroke-linecap:round;stroke-linejoin:round;stroke-miterlimit:4;stroke-dasharray:none;stroke-opacity:1" />
        <path
           sodipodi:open="true"
           transform="scale(1,-1)"
           d="M 146.2299,-25.253538 A 138.51366,53.679531 0 0 1 126.64825,-51.430886"
           sodipodi:end="3.1161108"
           sodipodi:start="2.6027548"
           sodipodi:ry="53.679531"
           sodipodi:rx="138.51366"
           sodipodi:cy="-52.798592"
           sodipodi:cx="265.11694"
           sodipodi:type="arc"
           id="path4171"
           style="fill:#cdde87;fill-opacity:1;stroke:#000000;stroke-width:1.02770865;stroke-linecap:round;stroke-linejoin:round;stroke-miterlimit:4;stroke-dasharray:none;stroke-opacity:1" />
        <path
           sodipodi:open="true"
           transform="scale(1,-1)"
           d="M 150.96653,-24.269079 A 109.16826,56.515091 0 0 1 135.53344,-51.829215"
           sodipodi:end="3.1161108"
           sodipodi:start="2.6027548"
           sodipodi:ry="56.515091"
           sodipodi:rx="109.16826"
           sodipodi:cy="-53.269169"
           sodipodi:cx="244.66626"
           sodipodi:type="arc"
           id="path4171-6"
           style="fill:#cdde87;fill-opacity:1;stroke:#000000;stroke-width:1;stroke-linecap:round;stroke-linejoin:round;stroke-miterlimit:4;stroke-dasharray:none;stroke-opacity:1" />
        <path
           sodipodi:open="true"
           transform="scale(1,-1)"
           d="m 154.57868,-24.897864 a 65.055679,56.204704 0 0 1 -9.1969,-27.408773"
           sodipodi:end="3.1161108"
           sodipodi:start="2.6027548"
           sodipodi:ry="56.204704"
           sodipodi:rx="65.055679"
           sodipodi:cy="-53.738682"
           sodipodi:cx="210.41634"
           sodipodi:type="arc"
           id="path4171-0"
           style="fill:#cdde87;fill-opacity:1;stroke:#000000;stroke-width:1;stroke-linecap:round;stroke-linejoin:round;stroke-miterlimit:4;stroke-dasharray:none;stroke-opacity:1" />
        <path
           inkscape:connector-curvature="0"
           id="path4196"
           d="m 156.89528,24.5 0,27.286135"
           style="fill:#cdde87;fill-rule:evenodd;stroke:#000000;stroke-width:1px;stroke-linecap:butt;stroke-linejoin:miter;stroke-opacity:1" />
        <path
           sodipodi:open="true"
           transform="scale(-1,-1)"
           d="m -167.41242,-24.929844 a 139.72331,54.597172 0 0 1 -19.75265,-26.624843"
           sodipodi:end="3.1161108"
           sodipodi:start="2.6027548"
           sodipodi:ry="54.597172"
           sodipodi:rx="139.72331"
           sodipodi:cy="-52.945774"
           sodipodi:cx="-47.487114"
           sodipodi:type="arc"
           id="path4171-9"
           style="fill:#cdde87;fill-opacity:1;stroke:#000000;stroke-width:1.04097152;stroke-linecap:round;stroke-linejoin:round;stroke-miterlimit:4;stroke-dasharray:none;stroke-opacity:1" />
        <path
           sodipodi:open="true"
           transform="scale(-1,-1)"
           d="M -162.66906,-23.938704 A 109.16826,56.515091 0 0 1 -178.10215,-51.49884"
           sodipodi:end="3.1161108"
           sodipodi:start="2.6027548"
           sodipodi:ry="56.515091"
           sodipodi:rx="109.16826"
           sodipodi:cy="-52.938793"
           sodipodi:cx="-68.96933"
           sodipodi:type="arc"
           id="path4171-6-6"
           style="fill:#cdde87;fill-opacity:1;stroke:#000000;stroke-width:1;stroke-linecap:round;stroke-linejoin:round;stroke-miterlimit:4;stroke-dasharray:none;stroke-opacity:1" />
        <path
           sodipodi:open="true"
           transform="scale(-1,-1)"
           d="m -159.05691,-24.567488 a 65.055679,56.204704 0 0 1 -9.1969,-27.408773"
           sodipodi:end="3.1161108"
           sodipodi:start="2.6027548"
           sodipodi:ry="56.204704"
           sodipodi:rx="65.055679"
           sodipodi:cy="-53.408306"
           sodipodi:cx="-103.21925"
           sodipodi:type="arc"
           id="path4171-0-4"
           style="fill:#cdde87;fill-opacity:1;stroke:#000000;stroke-width:1;stroke-linecap:round;stroke-linejoin:round;stroke-miterlimit:4;stroke-dasharray:none;stroke-opacity:1" />
      </g>
      <path
         style="fill:none;fill-rule:evenodd;stroke:#000000;stroke-width:2;stroke-linecap:butt;stroke-linejoin:miter;stroke-miterlimit:4;stroke-dasharray:none;stroke-opacity:1"
         d="m 130.62703,86.794357 21.2497,0"
         id="path4262"
         inkscape:connector-curvature="0" />
      <path
         style="fill:none;fill-rule:evenodd;stroke:#000000;stroke-width:2;stroke-linecap:butt;stroke-linejoin:miter;stroke-miterlimit:4;stroke-dasharray:none;stroke-opacity:1"
         d="m 161.60812,86.818081 21.77117,0"
         id="path4264"
         inkscape:connector-curvature="0" />
      <path
         style="fill:none;fill-opacity:1;stroke:#000000;stroke-width:1;stroke-linecap:square;stroke-linejoin:round;stroke-miterlimit:4;stroke-dasharray:none;stroke-opacity:1"
         id="path4266"
         sodipodi:type="arc"
         sodipodi:cx="140.80937"
         sodipodi:cy="88.060097"
         sodipodi:rx="4.5630531"
         sodipodi:ry="3.0881269"
         sodipodi:start="0.034344764"
         sodipodi:end="3.1258323"
         sodipodi:open="true"
         d="m 145.36973,88.166137 a 4.5630531,3.0881269 0 0 1 -4.60276,2.981953 4.5630531,3.0881269 0 0 1 -4.52008,-3.039325" />
      <path
         style="fill:none;fill-opacity:1;stroke:#000000;stroke-width:1;stroke-linecap:square;stroke-linejoin:round;stroke-miterlimit:4;stroke-dasharray:none;stroke-opacity:1"
         id="path4266-7"
         sodipodi:type="arc"
         sodipodi:cx="172.92957"
         sodipodi:cy="87.926285"
         sodipodi:rx="4.5630531"
         sodipodi:ry="3.0881269"
         sodipodi:start="0.034344764"
         sodipodi:end="3.1258323"
         sodipodi:open="true"
         d="m 177.48993,88.032325 a 4.5630531,3.0881269 0 0 1 -4.60276,2.981953 4.5630531,3.0881269 0 0 1 -4.52009,-3.039325" />
      <path
         sodipodi:type="spiral"
         style="fill:none;fill-rule:evenodd;stroke:#000000;stroke-width:1px;stroke-linecap:butt;stroke-linejoin:miter;stroke-opacity:1"
         id="path4283"
         sodipodi:cx="-118.28461"
         sodipodi:cy="171.58644"
         sodipodi:expansion="1"
         sodipodi:revolution="1.0009851"
         sodipodi:radius="5.0015411"
         sodipodi:argument="-21.727184"
         sodipodi:t0="0"
         d="m -118.28461,171.58644 c -0.72553,-0.19609 -0.0936,-1.07475 0.32592,-1.20589 1.13694,-0.35537 2.04098,0.84305 2.08586,1.85772 0.0803,1.81501 -1.70454,3.05837 -3.38953,2.96584 -2.47278,-0.1358 -4.09586,-2.57409 -3.8458,-4.92133 0.001,-0.0104 0.002,-0.0208 0.003,-0.0311"
         transform="scale(-1,1)" />
      <path
         sodipodi:type="spiral"
         style="fill:none;fill-rule:evenodd;stroke:#000000;stroke-width:1px;stroke-linecap:butt;stroke-linejoin:miter;stroke-opacity:1"
         id="path4283-1"
         sodipodi:cx="199.11333"
         sodipodi:cy="147.56879"
         sodipodi:expansion="1"
         sodipodi:revolution="0.83929807"
         sodipodi:radius="4.1936531"
         sodipodi:argument="-21.727184"
         sodipodi:t0="0"
         d="m 199.11333,147.56879 c -0.72554,-0.19609 -0.0936,-1.07476 0.32591,-1.20589 1.13694,-0.35537 2.04098,0.84305 2.08586,1.85772 0.0803,1.81501 -1.70454,3.05836 -3.38952,2.96583 -0.7586,-0.0417 -1.49366,-0.32086 -2.10281,-0.77216" />
      <path
         sodipodi:type="spiral"
         style="fill:none;fill-rule:evenodd;stroke:#000000;stroke-width:1px;stroke-linecap:butt;stroke-linejoin:miter;stroke-opacity:1"
         id="path4283-1-7"
         sodipodi:cx="-115.18104"
         sodipodi:cy="78.262527"
         sodipodi:expansion="1"
         sodipodi:revolution="0.83929807"
         sodipodi:radius="4.1936531"
         sodipodi:argument="-21.727184"
         sodipodi:t0="0"
         d="m -115.18104,78.262527 c -0.72553,-0.196091 -0.0936,-1.074752 0.32592,-1.205888 1.13693,-0.35537 2.04098,0.84305 2.08586,1.857721 0.0803,1.815009 -1.70454,3.058363 -3.38953,2.965832 -0.75859,-0.04166 -1.49366,-0.320856 -2.1028,-0.772157"
         transform="scale(-1,1)" />
      <path
         style="fill:none;fill-rule:evenodd;stroke:#000000;stroke-width:1px;stroke-linecap:butt;stroke-linejoin:miter;stroke-opacity:1"
         d="m 117.39163,87.076366 c -2.16453,0.414799 -4.33926,0.800125 -4.97787,5.623157 -0.1228,8.253967 0.64472,10.758677 5.30379,14.857257"
         id="path4319"
         inkscape:connector-curvature="0"
         sodipodi:nodetypes="ccc" />
      <path
         style="fill:none;fill-rule:evenodd;stroke:#000000;stroke-width:1px;stroke-linecap:butt;stroke-linejoin:miter;stroke-opacity:1"
         d="m 195.96067,87.326468 c 2.16453,0.414799 4.33926,0.800125 4.97787,5.623157 0.1228,8.253965 -0.64472,10.758675 -5.30379,14.857255"
         id="path4319-2"
         inkscape:connector-curvature="0"
         sodipodi:nodetypes="ccc" />
      <path
         style="fill:none;fill-opacity:1;stroke:#000000;stroke-width:2;stroke-linecap:square;stroke-linejoin:round;stroke-miterlimit:4;stroke-dasharray:none;stroke-opacity:1"
         id="path4353"
         sodipodi:type="arc"
         sodipodi:cx="156.71092"
         sodipodi:cy="133.8289"
         sodipodi:rx="7.0058999"
         sodipodi:ry="6.2684364"
         sodipodi:start="0"
         sodipodi:end="3.1113952"
         sodipodi:open="true"
         d="m 163.71682,133.8289 a 7.0058999,6.2684364 0 0 1 -6.90012,6.26773 7.0058999,6.2684364 0 0 1 -7.10848,-6.07846" />
      <path
         style="fill:none;fill-rule:evenodd;stroke:#000000;stroke-width:1px;stroke-linecap:butt;stroke-linejoin:miter;stroke-opacity:1"
         d="m 157.44838,85.709439 c 1.14465,9.940299 1.31022,21.838751 4.24041,28.207961 3.72071,10.52024 -5.97957,1.74428 -7.37463,0.36874"
         id="path4357"
         inkscape:connector-curvature="0"
         sodipodi:nodetypes="ccc" />
      <ellipse
         style="fill:#000000;fill-opacity:1;stroke:#000000;stroke-width:1;stroke-linecap:square;stroke-linejoin:round;stroke-miterlimit:4;stroke-dasharray:none;stroke-opacity:1"
         id="path4486"
         cx="157.77101"
         cy="132.90707"
         rx="2.9037611"
         ry="3.318584"
         d="m 160.67477,132.90707 a 2.9037611,3.318584 0 0 1 -2.90376,3.31859 2.9037611,3.318584 0 0 1 -2.90376,-3.31859 2.9037611,3.318584 0 0 1 2.90376,-3.31858 2.9037611,3.318584 0 0 1 2.90376,3.31858 z" />
      <g
         id="beard">
        <path
           sodipodi:open="true"
           d="m 187.08996,68.097774 a 30.881271,12.629056 0 0 1 -30.15939,9.499181 30.881271,12.629056 0 0 1 -29.79276,-9.690744"
           sodipodi:end="2.9068093"
           sodipodi:start="0.25040952"
           sodipodi:ry="12.629056"
           sodipodi:rx="30.881271"
           sodipodi:cy="64.968285"
           sodipodi:cx="157.17184"
           sodipodi:type="arc"
           id="path4233"
           style="fill:none;fill-opacity:1;stroke:#000000;stroke-width:2;stroke-linecap:round;stroke-linejoin:round;stroke-miterlimit:4;stroke-dasharray:none;stroke-opacity:1" />
        <path
           sodipodi:open="true"
           d="m 181.16494,67.247864 a 25.01383,10.229536 0 0 1 -23.60581,6.813132 25.01383,10.229536 0 0 1 -23.56817,-6.834894"
           sodipodi:end="2.8033324"
           sodipodi:start="0.3405163"
           sodipodi:ry="10.229536"
           sodipodi:rx="25.01383"
           sodipodi:cy="63.831467"
           sodipodi:cx="157.58734"
           sodipodi:type="arc"
           id="path4233-3"
           style="fill:none;fill-opacity:1;stroke:#000000;stroke-width:1;stroke-linecap:round;stroke-linejoin:round;stroke-miterlimit:4;stroke-dasharray:none;stroke-opacity:1" />
        <path
           sodipodi:open="true"
           d="m 172.44155,67.549389 a 18.528763,7.5774336 0 0 1 -15.22329,3.00224 18.528763,7.5774336 0 0 1 -14.84962,-3.300427"
           sodipodi:end="2.5421938"
           sodipodi:start="0.64788103"
           sodipodi:ry="7.5774336"
           sodipodi:rx="18.528763"
           sodipodi:cy="62.976421"
           sodipodi:cx="157.66737"
           sodipodi:type="arc"
           id="path4233-38"
           style="fill:none;fill-opacity:1;stroke:#000000;stroke-width:1;stroke-linecap:round;stroke-linejoin:round;stroke-miterlimit:4;stroke-dasharray:none;stroke-opacity:1" />
        <path
           inkscape:connector-curvature="0"
           id="path4256"
           d="m 117.9941,67.825958 0,87.550702"
           style="fill:none;fill-rule:evenodd;stroke:#000000;stroke-width:1.98722529;stroke-linecap:butt;stroke-linejoin:miter;stroke-miterlimit:4;stroke-dasharray:none;stroke-opacity:1" />
        <path
           inkscape:connector-curvature="0"
           id="path4258"
           d="m 195.79646,67.457227 0,88.495573"
           style="fill:none;fill-rule:evenodd;stroke:#000000;stroke-width:2;stroke-linecap:butt;stroke-linejoin:miter;stroke-miterlimit:4;stroke-dasharray:none;stroke-opacity:1" />
        <path
           d="m 195.77295,156.21287 a 38.904167,30.732605 0 0 1 -39.24271,29.67599 38.904167,30.732605 0 0 1 -38.53785,-30.24691"
           sodipodi:open="true"
           sodipodi:end="3.1258312"
           sodipodi:start="0.034344757"
           sodipodi:ry="30.732605"
           sodipodi:rx="38.904167"
           sodipodi:cy="155.15758"
           sodipodi:cx="156.89172"
           sodipodi:type="arc"
           id="path4260"
           style="fill:none;fill-opacity:1;stroke:#000000;stroke-width:2.0011332;stroke-linecap:square;stroke-linejoin:round;stroke-miterlimit:4;stroke-dasharray:none;stroke-opacity:1" />
        <path
           sodipodi:nodetypes="cc"
           inkscape:connector-curvature="0"
           id="path4336"
           d="m 129.60914,70.591445 c -0.13919,4.444432 -12.64177,41.787615 10.69322,58.628315"
           style="fill:none;fill-rule:evenodd;stroke:#000000;stroke-width:2;stroke-linecap:butt;stroke-linejoin:miter;stroke-miterlimit:4;stroke-dasharray:none;stroke-opacity:1" />
        <path
           sodipodi:nodetypes="cc"
           inkscape:connector-curvature="0"
           id="path4336-6"
           d="m 183.89889,71.676584 c 0.13919,4.444432 12.64177,41.787616 -10.69322,58.628316"
           style="fill:none;fill-rule:evenodd;stroke:#000000;stroke-width:2;stroke-linecap:butt;stroke-linejoin:miter;stroke-miterlimit:4;stroke-dasharray:none;stroke-opacity:1" />
        <path
           inkscape:connector-curvature="0"
           id="path4438"
           d="m 121.68142,67.641593 0,100.110617"
           style="fill:none;fill-rule:evenodd;stroke:#000000;stroke-width:1px;stroke-linecap:butt;stroke-linejoin:miter;stroke-opacity:1" />
        <path
           inkscape:connector-curvature="0"
           id="path4440"
           d="m 124.4469,67.641593 0,104.166667"
           style="fill:none;fill-rule:evenodd;stroke:#000000;stroke-width:1px;stroke-linecap:butt;stroke-linejoin:miter;stroke-opacity:1" />
        <path
           inkscape:connector-curvature="0"
           id="path4442"
           d="m 127.21239,68.563422 0,10.877581"
           style="fill:none;fill-rule:evenodd;stroke:#000000;stroke-width:1px;stroke-linecap:butt;stroke-linejoin:miter;stroke-opacity:1" />
        <path
           inkscape:connector-curvature="0"
           id="path4444"
           d="m 128.13422,112.99558 0,62.31563"
           style="fill:none;fill-rule:evenodd;stroke:#000000;stroke-width:1px;stroke-linecap:butt;stroke-linejoin:miter;stroke-opacity:1" />
        <path
           inkscape:connector-curvature="0"
           id="path4446"
           d="m 131.82153,120.00147 0,57.70649"
           style="fill:none;fill-rule:evenodd;stroke:#000000;stroke-width:1px;stroke-linecap:butt;stroke-linejoin:miter;stroke-opacity:1" />
        <path
           inkscape:connector-curvature="0"
           id="path4448"
           d="m 135.50885,124.79499 0,55.4941"
           style="fill:none;fill-rule:evenodd;stroke:#000000;stroke-width:1px;stroke-linecap:butt;stroke-linejoin:miter;stroke-opacity:1" />
        <path
           inkscape:connector-curvature="0"
           id="path4450"
           d="m 138.64307,138.06932 0,43.32596"
           style="fill:none;fill-rule:evenodd;stroke:#000000;stroke-width:1px;stroke-linecap:butt;stroke-linejoin:miter;stroke-opacity:1" />
        <path
           inkscape:connector-curvature="0"
           id="path4452"
           d="m 141.59292,138.06932 0,44.80089"
           style="fill:none;fill-rule:evenodd;stroke:#000000;stroke-width:1px;stroke-linecap:butt;stroke-linejoin:miter;stroke-opacity:1" />
        <path
           inkscape:connector-curvature="0"
           id="path4454"
           d="m 145.64897,137.14749 0,47.01328"
           style="fill:none;fill-rule:evenodd;stroke:#000000;stroke-width:1px;stroke-linecap:butt;stroke-linejoin:miter;stroke-opacity:1" />
        <path
           inkscape:connector-curvature="0"
           id="path4456"
           d="m 148.41445,136.22566 0,48.11947"
           style="fill:none;fill-rule:evenodd;stroke:#000000;stroke-width:1px;stroke-linecap:butt;stroke-linejoin:miter;stroke-opacity:1" />
        <path
           inkscape:connector-curvature="0"
           id="path4458"
           d="m 152.10177,138.43805 0,46.82891"
           style="fill:none;fill-rule:evenodd;stroke:#000000;stroke-width:1px;stroke-linecap:butt;stroke-linejoin:miter;stroke-opacity:1" />
        <path
           inkscape:connector-curvature="0"
           id="path4460"
           d="m 155.23599,139.91298 0,45.72271"
           style="fill:none;fill-rule:evenodd;stroke:#000000;stroke-width:1px;stroke-linecap:butt;stroke-linejoin:miter;stroke-opacity:1" />
        <path
           inkscape:connector-curvature="0"
           id="path4462"
           d="m 158.37021,140.09735 0,45.72271"
           style="fill:none;fill-rule:evenodd;stroke:#000000;stroke-width:1px;stroke-linecap:butt;stroke-linejoin:miter;stroke-opacity:1" />
        <path
           inkscape:connector-curvature="0"
           id="path4464"
           d="m 161.87316,138.25369 0,47.382"
           style="fill:none;fill-rule:evenodd;stroke:#000000;stroke-width:1px;stroke-linecap:butt;stroke-linejoin:miter;stroke-opacity:1" />
        <path
           inkscape:connector-curvature="0"
           id="path4466"
           d="m 165.56047,136.0413 0,49.22566"
           style="fill:none;fill-rule:evenodd;stroke:#000000;stroke-width:1px;stroke-linecap:butt;stroke-linejoin:miter;stroke-opacity:1" />
        <path
           inkscape:connector-curvature="0"
           id="path4468"
           d="m 168.51032,137.14749 0,47.01328"
           style="fill:none;fill-rule:evenodd;stroke:#000000;stroke-width:1px;stroke-linecap:butt;stroke-linejoin:miter;stroke-opacity:1" />
        <path
           inkscape:connector-curvature="0"
           id="path4470"
           d="m 172.01327,137.70059 0,45.35398"
           style="fill:none;fill-rule:evenodd;stroke:#000000;stroke-width:1px;stroke-linecap:butt;stroke-linejoin:miter;stroke-opacity:1" />
        <path
           inkscape:connector-curvature="0"
           id="path4472"
           d="m 175.14749,138.25369 0,43.51032"
           style="fill:none;fill-rule:evenodd;stroke:#000000;stroke-width:1px;stroke-linecap:butt;stroke-linejoin:miter;stroke-opacity:1" />
        <path
           sodipodi:nodetypes="cc"
           inkscape:connector-curvature="0"
           id="path4474"
           d="m 179.20354,124.42625 0,55.30974"
           style="fill:none;fill-rule:evenodd;stroke:#000000;stroke-width:1px;stroke-linecap:butt;stroke-linejoin:miter;stroke-opacity:1" />
        <path
           sodipodi:nodetypes="cc"
           inkscape:connector-curvature="0"
           id="path4476"
           d="m 182.52212,119.63274 0,58.07522"
           style="fill:none;fill-rule:evenodd;stroke:#000000;stroke-width:1px;stroke-linecap:butt;stroke-linejoin:miter;stroke-opacity:1" />
        <path
           sodipodi:nodetypes="cc"
           inkscape:connector-curvature="0"
           id="path4478"
           d="m 186.20944,175.67994 0,-66.74041"
           style="fill:none;fill-rule:evenodd;stroke:#000000;stroke-width:1px;stroke-linecap:butt;stroke-linejoin:miter;stroke-opacity:1" />
        <path
           inkscape:connector-curvature="0"
           id="path4480"
           d="m 189.89676,171.99263 0,-103.982306"
           style="fill:none;fill-rule:evenodd;stroke:#000000;stroke-width:1px;stroke-linecap:butt;stroke-linejoin:miter;stroke-opacity:1" />
        <path
           inkscape:connector-curvature="0"
           id="path4482"
           d="m 192.84661,68.010324 0,97.529496"
           style="fill:none;fill-rule:evenodd;stroke:#000000;stroke-width:1px;stroke-linecap:butt;stroke-linejoin:miter;stroke-opacity:1" />
        <path
           inkscape:connector-curvature="0"
           id="path4484"
           d="m 186.20944,84.234513 0,-14.933628"
           style="fill:none;fill-rule:evenodd;stroke:#000000;stroke-width:1px;stroke-linecap:butt;stroke-linejoin:miter;stroke-opacity:1" />
      </g>
      <g
         id="moostache"
         style="fill:#a05a2c">
        <path
           sodipodi:nodetypes="ccccccccccccc"
           inkscape:connector-curvature="0"
           id="path4359"
           d="m 147.05318,136.64828 c -1.13137,0.30651 -12.89262,3.73296 -15.8395,-0.58665 -1.62839,-2.4454 0.24472,-5.25233 1.49921,-6.84423 -0.22987,1.85161 0.84117,3.0268 3.25916,3.0636 2.10546,0.19286 4.98755,-2.70386 7.30051,-6.19239 3.22249,-4.4906 6.90716,-8.48427 14.11978,-2.72189 7.21263,-5.73079 10.8973,-1.73712 14.11979,2.75348 2.31296,3.48853 5.19505,6.38525 7.30051,6.19239 2.41799,-0.0368 3.48903,-1.21199 3.25916,-3.0636 1.25449,1.5919 3.1276,4.39883 1.49921,6.84423 -2.94688,4.31961 -14.70813,0.89316 -15.8395,0.58665 -5.13451,-1.59818 -7.53331,-4.10157 -10.33916,-6.92521 -2.80586,2.79205 -5.20466,5.29544 -10.33917,6.89362 z"
           style="fill:#a05a2c;fill-rule:evenodd;stroke:#000000;stroke-width:2;stroke-linecap:butt;stroke-linejoin:miter;stroke-miterlimit:4;stroke-dasharray:none;stroke-opacity:1" />
        <path
           inkscape:connector-curvature="0"
           id="path4376"
           d="m 134.77139,132.44617 0,5.3466"
           style="fill:#a05a2c;fill-rule:evenodd;stroke:#000000;stroke-width:1px;stroke-linecap:butt;stroke-linejoin:miter;stroke-opacity:1" />
        <path
           inkscape:connector-curvature="0"
           id="path4378"
           d="m 138.55089,131.43215 0,6.26844"
           style="fill:#a05a2c;fill-rule:evenodd;stroke:#000000;stroke-width:1px;stroke-linecap:butt;stroke-linejoin:miter;stroke-opacity:1" />
        <path
           inkscape:connector-curvature="0"
           id="path4380"
           d="m 142.14602,127.83702 0,9.49484"
           style="fill:#a05a2c;fill-rule:evenodd;stroke:#000000;stroke-width:1px;stroke-linecap:butt;stroke-linejoin:miter;stroke-opacity:1" />
        <path
           inkscape:connector-curvature="0"
           id="path4382"
           d="m 145.4646,123.50442 0,13.36652"
           style="fill:#a05a2c;fill-rule:evenodd;stroke:#000000;stroke-width:1px;stroke-linecap:butt;stroke-linejoin:miter;stroke-opacity:1" />
        <path
           inkscape:connector-curvature="0"
           id="path4384"
           d="m 149.52065,121.01549 0,14.65708"
           style="fill:#a05a2c;fill-rule:evenodd;stroke:#000000;stroke-width:1px;stroke-linecap:butt;stroke-linejoin:miter;stroke-opacity:1" />
        <path
           inkscape:connector-curvature="0"
           id="path4386"
           d="m 154.22198,121.38422 0,11.24631"
           style="fill:#a05a2c;fill-rule:evenodd;stroke:#000000;stroke-width:1px;stroke-linecap:butt;stroke-linejoin:miter;stroke-opacity:1" />
        <path
           inkscape:connector-curvature="0"
           id="path4388"
           d="m 159.84513,121.38422 0,10.69321"
           style="fill:#a05a2c;fill-rule:evenodd;stroke:#000000;stroke-width:1px;stroke-linecap:butt;stroke-linejoin:miter;stroke-opacity:1" />
        <path
           inkscape:connector-curvature="0"
           id="path4390"
           d="m 163.99336,120.9233 0,13.73525"
           style="fill:#a05a2c;fill-rule:evenodd;stroke:#000000;stroke-width:1px;stroke-linecap:butt;stroke-linejoin:miter;stroke-opacity:1" />
        <path
           inkscape:connector-curvature="0"
           id="path4392"
           d="m 168.04941,122.12168 0,14.74926"
           style="fill:#a05a2c;fill-rule:evenodd;stroke:#000000;stroke-width:1px;stroke-linecap:butt;stroke-linejoin:miter;stroke-opacity:1" />
        <path
           inkscape:connector-curvature="0"
           id="path4394"
           d="m 172.19764,127.09956 0,10.50885"
           style="fill:#a05a2c;fill-rule:evenodd;stroke:#000000;stroke-width:1px;stroke-linecap:butt;stroke-linejoin:miter;stroke-opacity:1" />
        <path
           inkscape:connector-curvature="0"
           id="path4396"
           d="m 176.06932,131.33997 0,6.63717"
           style="fill:#a05a2c;fill-rule:evenodd;stroke:#000000;stroke-width:1px;stroke-linecap:butt;stroke-linejoin:miter;stroke-opacity:1" />
        <path
           inkscape:connector-curvature="0"
           id="path4398"
           d="m 179.48009,132.35398 0,5.25443"
           style="fill:#a05a2c;fill-rule:evenodd;stroke:#000000;stroke-width:1px;stroke-linecap:butt;stroke-linejoin:miter;stroke-opacity:1" />
      </g>
      <g
         id="pipe">
        <g
           id="g4564">
          <g
             id="g4557">
            <path
               sodipodi:nodetypes="ccccccccc"
               inkscape:connector-curvature="0"
               id="path4496"
               d="m 226.18552,109.33654 -0.007,12.79006 c -0.1585,1.91338 0.0459,3.41338 -5.03505,4.60903 l -62.81341,7.59865 c -0.46992,-0.0346 -1.11712,0.18566 -1.33645,-1.33625 0.10402,-1.08923 0.48627,-1.10345 0.79852,-1.25478 l 50.66762,-10.10783 c 0.79465,-0.22194 1.69774,-0.4554 1.67144,-2.13958 l -0.0459,-8.33417"
               style="fill:#ffffff;fill-rule:evenodd;stroke:#000000;stroke-width:1px;stroke-linecap:butt;stroke-linejoin:miter;stroke-opacity:1" />
          </g>
        </g>
        <ellipse
           transform="matrix(0.99245947,-0.12257325,0.05971177,0.99821566,0,0)"
           ry="2.5646839"
           rx="8.1850634"
           cy="136.36633"
           cx="211.62106"
           id="path4494"
           style="fill:#ffffff;fill-opacity:1;stroke:#000000;stroke-width:1.11588764;stroke-linecap:square;stroke-linejoin:round;stroke-miterlimit:4;stroke-dasharray:none;stroke-opacity:1"
           d="m 219.80613,136.36633 a 8.1850634,2.5646839 0 0 1 -8.18507,2.56469 8.1850634,2.5646839 0 0 1 -8.18506,-2.56469 8.1850634,2.5646839 0 0 1 8.18506,-2.56468 8.1850634,2.5646839 0 0 1 8.18507,2.56468 z" />
        <ellipse
           ry="0.48396018"
           rx="3.6412241"
           cy="133.38635"
           cx="204.67578"
           transform="matrix(0.99400261,-0.10935634,0.10935634,0.99400261,0,0)"
           id="path4492"
           style="fill:#000000;fill-opacity:1;stroke:#000000;stroke-width:1;stroke-linecap:square;stroke-linejoin:round;stroke-miterlimit:4;stroke-dasharray:none;stroke-opacity:1"
           d="m 208.31701,133.38635 a 3.6412241,0.48396018 0 0 1 -3.64123,0.48396 3.6412241,0.48396018 0 0 1 -3.64122,-0.48396 3.6412241,0.48396018 0 0 1 3.64122,-0.48396 3.6412241,0.48396018 0 0 1 3.64123,0.48396 z" />
        <path
           transform="matrix(-1.2003306,0,0,1.2026566,-46.094108,-18.580255)"
           d="m -224.48935,87.791122 c -0.06,0.654942 -0.86517,0.857138 -1.38968,0.662857 -0.94245,-0.349086 -1.19077,-1.526877 -0.78082,-2.364952 0.60275,-1.232241 2.19723,-1.533077 3.34022,-0.898782 1.52504,0.846306 1.87899,2.87057 1.01675,4.315493 -1.08578,1.819513 -3.54532,2.226745 -5.29077,1.134708 -2.11496,-1.32322 -2.57556,-4.220847 -1.25267,-6.266035 1.55952,-2.411009 4.89687,-2.925044 7.24131,-1.370634 1.4491,0.960786 2.37422,2.57899 2.51994,4.306115"
           sodipodi:t0="0.11517384"
           sodipodi:argument="-7.1660118"
           sodipodi:radius="5.9432049"
           sodipodi:revolution="2.1389306"
           sodipodi:expansion="1"
           sodipodi:cy="87.368729"
           sodipodi:cx="-225.02798"
           id="path4572"
           style="fill:none;fill-rule:evenodd;stroke:#000000;stroke-width:0.8322978;stroke-linecap:butt;stroke-linejoin:miter;stroke-miterlimit:4;stroke-dasharray:none;stroke-opacity:1"
           sodipodi:type="spiral" />
        <path
           sodipodi:nodetypes="cc"
           inkscape:connector-curvature="0"
           id="path4574"
           d="m 216.90634,86.170354 1.1062,19.266226"
           style="fill:none;fill-rule:evenodd;stroke:#000000;stroke-width:1px;stroke-linecap:butt;stroke-linejoin:miter;stroke-opacity:1" />
        <path
           d="m 206.04624,91.070788 c -0.42766,0.45382 -1.15233,0.172865 -1.45313,-0.277361 -0.52039,-0.778919 -0.0799,-1.807509 0.68781,-2.225195 1.11044,-0.604184 2.47193,0.01135 2.99726,1.098244 0.69452,1.436934 -0.10154,3.139972 -1.50868,3.769337 -1.76153,0.787868 -3.80982,-0.191145 -4.54141,-1.919125 -0.88283,-2.085213 0.2804,-4.480714 2.32956,-5.313481 2.29601,-0.933079 4.93121,0.248637 5.96258,2.45412"
           sodipodi:t0="0.1382104"
           sodipodi:argument="-13.045843"
           sodipodi:radius="4.9938021"
           sodipodi:revolution="2.0192103"
           sodipodi:expansion="1"
           sodipodi:cy="90.410767"
           sodipodi:cx="205.84439"
           id="path4576"
           style="fill:none;fill-rule:evenodd;stroke:#000000;stroke-width:1px;stroke-linecap:butt;stroke-linejoin:miter;stroke-opacity:1"
           sodipodi:type="spiral" />
        <path
           inkscape:connector-curvature="0"
           id="path4578"
           d="m 210.36136,88.198377 6.54498,17.330383"
           style="fill:none;fill-rule:evenodd;stroke:#000000;stroke-width:1px;stroke-linecap:butt;stroke-linejoin:miter;stroke-opacity:1" />
        <path
           sodipodi:open="true"
           d="m 208.32036,102.02464 a 3.733407,2.4428465 0 0 1 3.2241,-0.48616 3.733407,2.4428465 0 0 1 2.54832,1.38075"
           sodipodi:end="5.8630823"
           sodipodi:start="4.0268276"
           sodipodi:ry="2.4428465"
           sodipodi:rx="3.733407"
           sodipodi:cy="103.91556"
           sodipodi:cx="210.68401"
           sodipodi:type="arc"
           id="path4580"
           style="fill:none;fill-opacity:1;stroke:#000000;stroke-width:1;stroke-linecap:square;stroke-linejoin:round;stroke-miterlimit:4;stroke-dasharray:none;stroke-opacity:1" />
        <path
           inkscape:connector-curvature="0"
           id="path4582"
           d="m 214.22441,103.04637 1.36885,2.83547"
           style="fill:none;fill-rule:evenodd;stroke:#000000;stroke-width:1px;stroke-linecap:butt;stroke-linejoin:miter;stroke-opacity:1" />
        <path
           transform="matrix(-1.7246578,0,0,1.8772569,-161.74539,-85.375513)"
           d="m -223.42479,98.483791 c 0.38442,0.53992 0.0544,1.268068 -0.48038,1.556399 -0.81655,0.44022 -1.8066,-0.0379 -2.17662,-0.836014 -0.50388,-1.0868 0.12935,-2.349266 1.19165,-2.796839 1.35495,-0.570873 2.89386,0.220261 3.41706,1.547292 0.0956,0.242521 0.15801,0.49791 0.18602,0.757062"
           sodipodi:t0="0.29242143"
           sodipodi:argument="-15.537207"
           sodipodi:radius="2.9783041"
           sodipodi:revolution="1.4728231"
           sodipodi:expansion="1"
           sodipodi:cy="98.711693"
           sodipodi:cx="-224.26537"
           id="path4584"
           style="fill:none;fill-rule:evenodd;stroke:#000000;stroke-width:0.55575919;stroke-linecap:butt;stroke-linejoin:miter;stroke-miterlimit:4;stroke-dasharray:none;stroke-opacity:1"
           sodipodi:type="spiral" />
        <path
           sodipodi:nodetypes="cc"
           inkscape:connector-curvature="0"
           id="path4586"
           d="m 219.95397,99.607648 -0.55869,5.644562"
           style="fill:none;fill-rule:evenodd;stroke:#000000;stroke-width:1px;stroke-linecap:butt;stroke-linejoin:miter;stroke-opacity:1" />
      </g>
      <text
         sodipodi:linespacing="125%"
         id="text4337"
         y="88.380074"
         x="250.36914"
         style="font-style:normal;font-weight:normal;font-size:40px;line-height:125%;font-family:sans-serif;letter-spacing:0px;word-spacing:0px;fill:#000000;fill-opacity:1;stroke:none;stroke-width:1px;stroke-linecap:butt;stroke-linejoin:miter;stroke-opacity:1"
         xml:space="preserve"><tspan
           id="tspan4339"
           y="88.380074"
           x="250.36914"
           sodipodi:role="line"><tspan
             id="tspan4341"
             style="font-style:normal;font-variant:normal;font-weight:normal;font-stretch:normal;font-size:15px;font-family:'Lucida Fax';-inkscape-font-specification:'Lucida Fax'"
             y="88.380074"
             x="250.36914">HEY! Whatch'ya doin' in </tspan></tspan><tspan
           id="tspan4343"
           y="107.13007"
           x="250.36914"
           sodipodi:role="line"><tspan
             id="tspan4345"
             style="font-style:normal;font-variant:normal;font-weight:normal;font-stretch:normal;font-size:15px;font-family:'Lucida Fax';-inkscape-font-specification:'Lucida Fax'"
             x="250.36914">these parts? GO'ON GET </tspan></tspan><tspan
           id="tspan4347"
           y="125.88007"
           x="250.36914"
           sodipodi:role="line"><tspan
             id="tspan4349"
             style="font-style:normal;font-variant:normal;font-weight:normal;font-stretch:normal;font-size:15px;font-family:'Lucida Fax';-inkscape-font-specification:'Lucida Fax'"
             x="250.36914">OUTTA HERE!</tspan></tspan></text>
    </g>
    <text
       xml:space="preserve"
       style="font-style:normal;font-weight:normal;font-size:40px;line-height:125%;font-family:sans-serif;letter-spacing:0px;word-spacing:0px;fill:#000000;fill-opacity:1;stroke:none;stroke-width:1px;stroke-linecap:butt;stroke-linejoin:miter;stroke-opacity:1"
       x="179.20639"
       y="26.863899"
       id="text4239"
       sodipodi:linespacing="125%"><tspan
         sodipodi:role="line"
         id="tspan4241"
         x="179.20639"
         y="26.863899"
         style="font-style:normal;font-variant:normal;font-weight:normal;font-stretch:normal;font-size:90px;font-family:'Lucida Bright';-inkscape-font-specification:'Lucida Bright'">404</tspan></text>
  </g>
</svg>
